<?xml version="1.0" encoding="utf-8"?>
<!-- Generator: Adobe Illustrator 24.0.0, SVG Export Plug-In . SVG Version: 6.00 Build 0)  -->
<svg version="1.1" id="Layer_1" xmlns="http://www.w3.org/2000/svg" xmlns:xlink="http://www.w3.org/1999/xlink" x="0px" y="0px"
	 viewBox="0 0 1591.3 1060.9" style="enable-background:new 0 0 1591.3 1060.9;" xml:space="preserve">
<style type="text/css">
	.st0{fill:#DFEBFF;}
	.st1{fill:#E1E5F0;}
	.st2{fill:#FFFFFF;}
	.st3{fill:#50C7E2;}
	.st4{fill:#00ADE6;}
	.st5{font-family:'MyriadPro-Regular';}
	.st6{font-size:57.2401px;}
</style>
<path id="Path_5" class="st0" d="M79.2,173.4c240-490,681.4,126.3,1109.6,86.9s498.2,271,327.8,463.2s-406,401.5-821.2,288.9
	S-160.7,663.4,79.2,173.4z"/>
<rect x="199" y="123" class="st1" width="429" height="690"/>
<rect x="237.5" y="151.5" class="st2" width="251.5" height="38"/>
<rect x="199" y="727" class="st2" width="429" height="86"/>
<path class="st3" d="M383.7,796.1h-34.6c-4.9,0-8.8-3.9-8.8-8.8v-34.6c0-4.9,3.9-8.8,8.8-8.8h34.6c4.9,0,8.8,3.9,8.8,8.8v34.6
	C392.5,792.2,388.6,796.1,383.7,796.1z"/>
<path class="st3" d="M280.9,796.1h-34.6c-4.9,0-8.8-3.9-8.8-8.8v-34.6c0-4.9,3.9-8.8,8.8-8.8h34.6c4.9,0,8.8,3.9,8.8,8.8v34.6
	C289.8,792.2,285.8,796.1,280.9,796.1z"/>
<path class="st3" d="M482.8,796.1h-34.6c-4.9,0-8.8-3.9-8.8-8.8v-34.6c0-4.9,3.9-8.8,8.8-8.8h34.6c4.9,0,8.8,3.9,8.8,8.8v34.6
	C491.6,792.2,487.7,796.1,482.8,796.1z"/>
<path class="st3" d="M580.8,796.1h-34.6c-4.9,0-8.8-3.9-8.8-8.8v-34.6c0-4.9,3.9-8.8,8.8-8.8h34.6c4.9,0,8.8,3.9,8.8,8.8v34.6
	C589.6,792.2,585.7,796.1,580.8,796.1z"/>
<text transform="matrix(0.858 0 0 1 246 439.6895)" class="st4 st5 st6">Books Store App</text>
<path class="st3" d="M590.8,187.3h-20.3c-2.9,0-5.2-2.4-5.2-5.3V161c0-3,2.3-5.3,5.2-5.3h20.3c2.9,0,5.2,2.4,5.2,5.3V182
	C596,184.9,593.7,187.3,590.8,187.3z"/>
<path class="st3" d="M536.6,187.3h-20.3c-2.9,0-5.2-2.4-5.2-5.3V161c0-3,2.3-5.3,5.2-5.3h20.3c2.9,0,5.2,2.4,5.2,5.3V182
	C541.8,184.9,539.5,187.3,536.6,187.3z"/>
</svg>
